<svg xmlns="http://www.w3.org/2000/svg" viewBox="0 0 600 320" width="600" height="320"><defs><style>@import url("https://fonts.googleapis.com/css2?family=JetBrains+Mono:wght@400;600&amp;display=swap");.txt { font-family: "JetBrains Mono", monospace; fill: #e6edf3; }.title { font-size: 18px; font-weight: 600; }.label { font-size: 13px; font-weight: 500; }.percent { font-size: 12px; fill: #8b949e; }</style><linearGradient id="bg" x1="0" y1="0" x2="0" y2="1"><stop offset="0%" stop-color="#0d1117"/><stop offset="100%" stop-color="#161b22"/></linearGradient></defs><rect width="100%" height="100%" fill="url(#bg)" rx="12"/><rect width="100%" height="100%" fill="none" stroke="#30363d" stroke-width="2" rx="12"/><text x="30" y="35" class="txt title">LANGUAGE DISTRIBUTION</text><g transform="rotate(-90 160 180)"><circle r="85" cx="160" cy="180" fill="transparent" stroke="#b07219" stroke-width="30" stroke-dasharray="289.8296155124325 534.0707511102648" stroke-dashoffset="0"/><circle r="85" cx="160" cy="180" fill="transparent" stroke="#3572A5" stroke-width="30" stroke-dasharray="101.81164271585311 534.0707511102648" stroke-dashoffset="-289.8296155124325"/><circle r="85" cx="160" cy="180" fill="transparent" stroke="#e34c26" stroke-width="30" stroke-dasharray="98.10133462591773 534.0707511102648" stroke-dashoffset="-391.6412582282856"/><circle r="85" cx="160" cy="180" fill="transparent" stroke="#f1e05a" stroke-width="30" stroke-dasharray="44.32815825606148 534.0707511102648" stroke-dashoffset="-489.74259285420334"/></g><text x="160" y="175" class="txt label" text-anchor="middle" font-size="16px">TOTAL</text><text x="160" y="195" class="txt percent" text-anchor="middle" font-size="14px">4 langs</text><circle cx="320" cy="70" r="5" fill="#b07219"/><text x="335" y="74" class="txt label">Java</text><text x="500" y="74" class="txt percent" text-anchor="end">54.3%</text><text x="580" y="74" class="txt percent" text-anchor="end">4 repos</text><circle cx="320" cy="94" r="5" fill="#3572A5"/><text x="335" y="98" class="txt label">Python</text><text x="500" y="98" class="txt percent" text-anchor="end">19.1%</text><text x="580" y="98" class="txt percent" text-anchor="end">2 repos</text><circle cx="320" cy="118" r="5" fill="#e34c26"/><text x="335" y="122" class="txt label">HTML</text><text x="500" y="122" class="txt percent" text-anchor="end">18.4%</text><text x="580" y="122" class="txt percent" text-anchor="end">3 repos</text><circle cx="320" cy="142" r="5" fill="#f1e05a"/><text x="335" y="146" class="txt label">JavaScript</text><text x="500" y="146" class="txt percent" text-anchor="end">8.3%</text><text x="580" y="146" class="txt percent" text-anchor="end">1 repos</text></svg>