<svg xmlns="http://www.w3.org/2000/svg" viewBox="0 0 900 580" width="900" height="580">
    <defs>
        <style>
            @import url('https://fonts.googleapis.com/css2?family=JetBrains+Mono:wght@400;600;700&amp;display=swap');
            .txt { font-family: 'JetBrains Mono', monospace; fill: #e6edf3; }
            .title { font-size: 32px; font-weight: 700; }
            .subtitle { font-size: 13px; fill: #8b949e; }
            .lang { font-size: 17px; font-weight: 600; }
            .stat { font-size: 12px; fill: #8b949e; }
            .bar-bg { fill: #161b22; stroke: #30363d; rx: 5; }
        </style>
        <linearGradient id="grad" x1="0" y1="0" x2="0" y2="1">
            <stop offset="0%" stop-color="#0d1117"/>
            <stop offset="100%" stop-color="#161b22"/>
        </linearGradient>
    </defs>
    <rect width="100%" height="100%" fill="url(#grad)" rx="12" stroke="#30363d"/>
    
    <g transform="translate(40, 50)">
        <text x="0" y="0" class="txt title" fill="#f92672">◈ SKILL MATRIX</text>
        <text x="0" y="28" class="txt subtitle">Harsh Evaluation • January 2026</text>
        <text x="0" y="50" class="txt subtitle">300 Commits • 0 PRs</text>
    </g>
    
    
    <g transform="translate(40, 150)">
        <circle cx="18" cy="18" r="8" fill="#b07219"/>
        <line x1="18" y1="28" x2="18" y2="70" stroke="#30363d" stroke-dasharray="3,3"/>
        <text x="45" y="24" class="txt lang" fill="#b07219">Java</text>
        <text x="820" y="24" class="txt stat" fill="#a626a4" text-anchor="end">◆ ADVANCED</text>
        <text x="820" y="62" class="txt stat" text-anchor="end">Top: code-bento</text>
        <text x="700" y="24" class="txt stat" text-anchor="end">LVL 7</text>
        <rect x="45" y="35" width="350" height="8" class="bar-bg"/>
        <rect x="45" y="35" width="244.99999999999997" height="8" fill="#b07219" rx="4"/>
        <text x="45" y="62" class="txt stat" fill="#79c0ff">Core</text>
    </g>

    <g transform="translate(40, 245)">
        <circle cx="18" cy="18" r="8" fill="#e34c26"/>
        <line x1="18" y1="28" x2="18" y2="70" stroke="#30363d" stroke-dasharray="3,3"/>
        <text x="45" y="24" class="txt lang" fill="#e34c26">HTML</text>
        <text x="820" y="24" class="txt stat" fill="#61afef" text-anchor="end">● COMPETENT</text>
        <text x="820" y="62" class="txt stat" text-anchor="end">Top: explain_clean_ai</text>
        <text x="700" y="24" class="txt stat" text-anchor="end">LVL 6</text>
        <rect x="45" y="35" width="350" height="8" class="bar-bg"/>
        <rect x="45" y="35" width="210.0" height="8" fill="#e34c26" rx="4"/>
        <text x="45" y="62" class="txt stat" fill="#79c0ff">Core</text>
    </g>

    <g transform="translate(40, 340)">
        <circle cx="18" cy="18" r="8" fill="#3572A5"/>
        <line x1="18" y1="28" x2="18" y2="70" stroke="#30363d" stroke-dasharray="3,3"/>
        <text x="45" y="24" class="txt lang" fill="#3572A5">Python</text>
        <text x="820" y="24" class="txt stat" fill="#61afef" text-anchor="end">● COMPETENT</text>
        <text x="820" y="62" class="txt stat" text-anchor="end">Top: code-bento</text>
        <text x="700" y="24" class="txt stat" text-anchor="end">LVL 5</text>
        <rect x="45" y="35" width="350" height="8" class="bar-bg"/>
        <rect x="45" y="35" width="175.0" height="8" fill="#3572A5" rx="4"/>
        <text x="45" y="62" class="txt stat" fill="#79c0ff">Core</text>
    </g>

    <g transform="translate(40, 435)">
        <circle cx="18" cy="18" r="8" fill="#f1e05a"/>
        <line x1="18" y1="28" x2="18" y2="70" stroke="#30363d" stroke-dasharray="3,3"/>
        <text x="45" y="24" class="txt lang" fill="#f1e05a">JavaScript</text>
        <text x="820" y="24" class="txt stat" fill="#61afef" text-anchor="end">● COMPETENT</text>
        <text x="820" y="62" class="txt stat" text-anchor="end">Top: sentinelnet</text>
        <text x="700" y="24" class="txt stat" text-anchor="end">LVL 5</text>
        <rect x="45" y="35" width="350" height="8" class="bar-bg"/>
        <rect x="45" y="35" width="175.0" height="8" fill="#f1e05a" rx="4"/>
        <text x="45" y="62" class="txt stat" fill="#79c0ff">Core</text>
    </g>
</svg>